<svg width="20" height="20" viewBox="0 0 20 20" fill="none" xmlns="http://www.w3.org/2000/svg">
<path d="M17.521 4.73363L14.8309 2.08458L7.30009 9.43516L10.0183 12.0921L17.521 4.73363ZM5.8798 13.4038L9.39844 12.5642L6.82064 10.0456L5.8798 13.4038ZM19.2101 0.974382L18.6705 0.442991C18.0707 -0.147664 17.1118 -0.147664 16.512 0.442991L15.4889 1.44256L18.179 4.09162L19.2101 3.08019C19.81 2.50929 19.81 1.56504 19.2101 0.974382ZM16.0145 17.6095C16.0145 17.8327 15.8299 18.0145 15.6032 18.0145H13.6734H12.901H2.08431C1.85762 18.0145 1.67306 17.8327 1.67306 17.6095V2.83722C1.67306 2.61399 1.85762 2.43225 2.08431 2.43225H12.552V0.784741H2.08431C0.934829 0.784741 0 1.70529 0 2.83722V17.6095C0 18.7414 0.934829 19.66 2.08431 19.66H12.901H13.6734H15.6032C16.7527 19.66 17.6875 18.7394 17.6875 17.6095V7.70666H16.0165V17.6095H16.0145Z" fill="#FFF7F2"/>
</svg>
