<svg width="17" height="14" viewBox="0 0 17 14" fill="none" xmlns="http://www.w3.org/2000/svg">
<path d="M6.65601 4.10888C6.77781 4.10888 6.89961 4.07246 6.99251 3.99955L7.24633 3.80049C7.43218 3.65473 7.43218 3.41842 7.24633 3.27266C7.0605 3.1269 6.75915 3.1269 6.5733 3.27266L6.31948 3.47172C6.0188 3.70755 6.23588 4.10888 6.65601 4.10888Z" fill="white"/>
<path d="M8.68592 4.3079C8.80772 4.3079 8.92952 4.27147 9.02242 4.19856L9.27624 3.9995C9.4621 3.85374 9.4621 3.61743 9.27624 3.47167C9.09041 3.32591 8.78907 3.32591 8.60321 3.47167L8.34939 3.67073C8.04871 3.90657 8.26579 4.3079 8.68592 4.3079Z" fill="white"/>
<path d="M6.65601 5.70099C6.77781 5.70099 6.89961 5.66456 6.99251 5.59166L7.24633 5.3926C7.43218 5.24683 7.43218 5.01053 7.24633 4.86476C7.0605 4.719 6.75915 4.719 6.5733 4.86476L6.31948 5.06382C6.0188 5.29966 6.23588 5.70099 6.65601 5.70099Z" fill="white"/>
<path d="M0.534828 7.29292H15.8221C16.0849 7.29292 16.2979 7.12584 16.2979 6.91977C16.2979 6.71369 16.0849 6.54662 15.8221 6.54662H15.2512V1.8809C15.2512 0.943548 14.2844 0.183716 13.0877 0.183716C12.5879 0.183716 12.1004 0.320761 11.7149 0.568781L11.4161 0.761053C10.7475 0.452409 9.87091 0.522909 9.29744 0.972704L8.57979 1.53559C8.394 1.68132 8.394 1.91757 8.57979 2.0633L10.374 3.47054C10.5597 3.61627 10.861 3.6163 11.0468 3.47054C11.8086 2.87301 11.7613 2.90766 11.7644 2.90766C12.3174 2.47396 12.4207 1.81911 12.0746 1.30269L12.3185 1.14577C12.5332 1.00756 12.8046 0.930936 13.0824 0.93004C13.7324 0.925463 14.2998 1.33998 14.2998 1.8809V6.54664C13.8123 6.54664 1.01765 6.54664 0.534828 6.54664C0.27209 6.54664 0.059082 6.71371 0.059082 6.91979C0.059082 7.12587 0.27209 7.29292 0.534828 7.29292Z" fill="white"/>
<path d="M2.40271 8.6319L2.60541 9.50619C2.90706 10.8074 4.1382 11.818 5.70325 12.1482V12.6864C5.70325 12.8924 5.91625 13.0595 6.17899 13.0595C6.44173 13.0595 6.65474 12.8924 6.65474 12.6864V12.2609C6.80324 12.2653 11.6614 12.2648 11.7928 12.2609V12.6864C11.7928 12.8924 12.0058 13.0595 12.2685 13.0595C12.5313 13.0595 12.7443 12.8924 12.7443 12.6864V12.1482C14.3093 11.818 15.5405 10.8074 15.8421 9.50622L16.0448 8.63192L2.40271 8.6319Z" fill="white"/>
</svg>
