<svg width="17" height="11" viewBox="0 0 17 11" fill="none" xmlns="http://www.w3.org/2000/svg">
<path d="M16.3284 4.82633V10.5579H14.7045V8.64739H1.71348V10.5579H0.0895996V0.368439H1.71348V6.73686H8.209V2.27897H13.0806C13.942 2.27897 14.7681 2.54735 15.3772 3.02507C15.9862 3.5028 16.3284 4.15073 16.3284 4.82633ZM4.96124 6.10002C4.31522 6.10002 3.69566 5.89873 3.23886 5.54044C2.78205 5.18215 2.52542 4.6962 2.52542 4.18949C2.52542 3.68279 2.78205 3.19684 3.23886 2.83855C3.69566 2.48025 4.31522 2.27897 4.96124 2.27897C5.60726 2.27897 6.22682 2.48025 6.68363 2.83855C7.14043 3.19684 7.39706 3.68279 7.39706 4.18949C7.39706 4.6962 7.14043 5.18215 6.68363 5.54044C6.22682 5.89873 5.60726 6.10002 4.96124 6.10002Z" fill="white"/>
</svg>
