<svg width="50" height="50" viewBox="0 0 50 50" fill="none" xmlns="http://www.w3.org/2000/svg">
<path d="M27.456 44.7649H22.916C21.7519 44.7649 20.8206 43.7703 20.8206 42.5417V28.6174H17.0954C15.9313 28.6174 15 27.6228 15 26.3942V22.3574C15 21.1288 15.9313 20.1342 17.0954 20.1342H20.7042V16.4483C20.7042 11.1244 23.8473 7.55556 28.5038 7.55556H31.9961C33.1602 7.55556 34.0915 8.55015 34.0915 9.77875V14.5177C34.0915 15.7463 33.1602 16.7409 31.9961 16.7409H29.6097C29.5515 16.7409 29.5515 16.7409 29.4932 16.7409C29.4932 16.7994 29.4932 16.8579 29.4932 16.9164V20.0757H32.811C33.5095 20.1342 34.0915 20.4267 34.4989 20.8947C34.9064 21.4213 35.081 22.1233 34.9646 22.7669L34.2661 26.7453C34.1497 27.7983 33.2766 28.5589 32.1707 28.5589H29.4932V42.5417C29.4932 43.7118 28.562 44.7649 27.456 44.7649ZM21.8101 26.5697C22.3921 26.5697 22.8578 27.0378 22.8578 27.6228V42.5417C22.8578 42.6587 22.916 42.7172 22.916 42.7172H27.456C27.456 42.7172 27.5143 42.6587 27.5143 42.5417V27.5058C27.5143 26.9208 27.9799 26.4527 28.562 26.4527H32.2289C32.2289 26.4527 32.2871 26.4527 32.2871 26.3942V26.3357L32.9856 22.4159C32.9856 22.2989 32.9856 22.2404 32.9274 22.1819C32.9274 22.1819 32.8692 22.1233 32.811 22.1233H28.5038C27.9217 22.1233 27.456 21.6553 27.456 21.0703V16.9164C27.456 15.8633 27.6307 14.6932 29.6097 14.6932H31.9961C31.9961 14.6932 32.0543 14.6347 32.0543 14.5177V9.83726C32.0543 9.72025 31.9961 9.66174 31.9961 9.66174H28.562C25.0696 9.66174 22.7996 12.353 22.7996 16.5069V21.2458C22.7996 21.8308 22.3339 22.2989 21.7519 22.2989H17.0954C17.0954 22.2989 17.0372 22.3574 17.0372 22.4744V26.5112C17.0372 26.6282 17.0954 26.6868 17.0954 26.6868L21.8101 26.5697Z" fill="#FFF7F2"/>
<circle cx="25" cy="25" r="24.5" stroke="#FFF7F2"/>
</svg>
