<svg width="27" height="24" viewBox="0 0 27 24" fill="none" xmlns="http://www.w3.org/2000/svg">
<path d="M8.66958 16.802C8.84627 16.3335 9.17391 15.9279 9.60737 15.641C10.0408 15.3541 10.5587 15.2 11.0897 15.2C11.6207 15.2 12.1386 15.3541 12.5721 15.641C13.0055 15.9279 13.3332 16.3335 13.5099 16.802H22.207V18.402H13.5099C13.3332 18.8704 13.0055 19.276 12.5721 19.5629C12.1386 19.8498 11.6207 20.0039 11.0897 20.0039C10.5587 20.0039 10.0408 19.8498 9.60737 19.5629C9.17391 19.276 8.84627 18.8704 8.66958 18.402H5.10352V16.802H8.66958ZM13.8006 11.202C13.9773 10.7335 14.3049 10.3279 14.7384 10.041C15.1719 9.75408 15.6898 9.6 16.2208 9.6C16.7517 9.6 17.2697 9.75408 17.7031 10.041C18.1366 10.3279 18.4642 10.7335 18.6409 11.202H22.207V12.802H18.6409C18.4642 13.2704 18.1366 13.676 17.7031 13.9629C17.2697 14.2498 16.7517 14.4039 16.2208 14.4039C15.6898 14.4039 15.1719 14.2498 14.7384 13.9629C14.3049 13.676 13.9773 13.2704 13.8006 12.802H5.10352V11.202H13.8006ZM8.66958 5.60196C8.84627 5.13353 9.17391 4.72791 9.60737 4.44099C10.0408 4.15408 10.5587 4 11.0897 4C11.6207 4 12.1386 4.15408 12.5721 4.44099C13.0055 4.72791 13.3332 5.13353 13.5099 5.60196H22.207V7.20196H13.5099C13.3332 7.67039 13.0055 8.07601 12.5721 8.36293C12.1386 8.64984 11.6207 8.80392 11.0897 8.80392C10.5587 8.80392 10.0408 8.64984 9.60737 8.36293C9.17391 8.07601 8.84627 7.67039 8.66958 7.20196H5.10352V5.60196H8.66958ZM11.0897 7.20196C11.3165 7.20196 11.534 7.11767 11.6944 6.96765C11.8548 6.81762 11.9449 6.61413 11.9449 6.40196C11.9449 6.18979 11.8548 5.9863 11.6944 5.83628C11.534 5.68625 11.3165 5.60196 11.0897 5.60196C10.8629 5.60196 10.6454 5.68625 10.485 5.83628C10.3246 5.9863 10.2346 6.18979 10.2346 6.40196C10.2346 6.61413 10.3246 6.81762 10.485 6.96765C10.6454 7.11767 10.8629 7.20196 11.0897 7.20196ZM16.2208 12.802C16.4476 12.802 16.6651 12.7177 16.8255 12.5676C16.9858 12.4176 17.0759 12.2141 17.0759 12.002C17.0759 11.7898 16.9858 11.5863 16.8255 11.4363C16.6651 11.2862 16.4476 11.202 16.2208 11.202C15.994 11.202 15.7764 11.2862 15.6161 11.4363C15.4557 11.5863 15.3656 11.7898 15.3656 12.002C15.3656 12.2141 15.4557 12.4176 15.6161 12.5676C15.7764 12.7177 15.994 12.802 16.2208 12.802ZM11.0897 18.402C11.3165 18.402 11.534 18.3177 11.6944 18.1676C11.8548 18.0176 11.9449 17.8141 11.9449 17.602C11.9449 17.3898 11.8548 17.1863 11.6944 17.0363C11.534 16.8862 11.3165 16.802 11.0897 16.802C10.8629 16.802 10.6454 16.8862 10.485 17.0363C10.3246 17.1863 10.2346 17.3898 10.2346 17.602C10.2346 17.8141 10.3246 18.0176 10.485 18.1676C10.6454 18.3177 10.8629 18.402 11.0897 18.402Z" fill="#FFF7F2"/>
</svg>
