<svg width="50" height="50" viewBox="0 0 50 50" fill="none" xmlns="http://www.w3.org/2000/svg">
<circle cx="25" cy="25" r="24.5" stroke="#FFF7F2"/>
<path d="M25 23.25H39.9327C40.0097 23.9237 40.05 24.615 40.05 25.322C40.05 30.1065 38.335 34.135 35.3635 36.872C32.7647 39.2712 29.207 40.6782 24.965 40.6782C22.9012 40.6792 20.8574 40.2734 18.9504 39.484C17.0435 38.6947 15.3108 37.5374 13.8514 36.0781C12.392 34.6188 11.2344 32.8863 10.4449 30.9794C9.65533 29.0726 9.24931 27.0288 9.25 24.965C9.24908 22.901 9.65493 20.8571 10.4444 18.95C11.2338 17.043 12.3913 15.3102 13.8508 13.8508C15.3102 12.3913 17.043 11.2338 18.95 10.4444C20.8571 9.65493 22.901 9.24908 24.965 9.25C29.2 9.25 32.7577 10.8075 35.479 13.3432L32.9205 15.9C30.894 13.9417 28.1552 12.75 25 12.75C21.7511 12.75 18.6353 14.0406 16.3379 16.3379C14.0406 18.6353 12.75 21.7511 12.75 25C12.75 28.2489 14.0406 31.3647 16.3379 33.662C18.6353 35.9594 21.7511 37.25 25 37.25C31.1705 37.25 35.752 32.686 36.5097 26.75H25V23.25Z" fill="#FFF7F2"/>
</svg>
