<svg width="200" height="259" viewBox="0 0 200 259" fill="none" xmlns="http://www.w3.org/2000/svg">
<g opacity="0.9" filter="url(#filter0_d_9_4)">
<path d="M90.9562 232.259C24.3613 135.579 12 125.656 12 90.125C12 41.4547 51.3988 2 100 2C148.601 2 188 41.4547 188 90.125C188 125.656 175.639 135.579 109.044 232.259C106.859 235.42 103.429 237 100 237C96.5705 237 93.1411 235.419 90.9562 232.259ZM100 126.844C120.251 126.844 136.667 110.404 136.667 90.125C136.667 69.8457 120.251 53.4062 100 53.4062C79.7495 53.4062 63.3333 69.8457 63.3333 90.125C63.3333 110.404 79.7495 126.844 100 126.844Z" fill="url(#paint0_linear_9_4)"/>
</g>
<defs>
<filter id="filter0_d_9_4" x="0" y="0" width="200" height="259" filterUnits="userSpaceOnUse" color-interpolation-filters="sRGB">
<feFlood flood-opacity="0" result="BackgroundImageFix"/>
<feColorMatrix in="SourceAlpha" type="matrix" values="0 0 0 0 0 0 0 0 0 0 0 0 0 0 0 0 0 0 127 0" result="hardAlpha"/>
<feOffset dy="10"/>
<feGaussianBlur stdDeviation="6"/>
<feComposite in2="hardAlpha" operator="out"/>
<feColorMatrix type="matrix" values="0 0 0 0 0 0 0 0 0 0 0 0 0 0 0 0 0 0 0.25 0"/>
<feBlend mode="normal" in2="BackgroundImageFix" result="effect1_dropShadow_9_4"/>
<feBlend mode="normal" in="SourceGraphic" in2="effect1_dropShadow_9_4" result="shape"/>
</filter>
<linearGradient id="paint0_linear_9_4" x1="100" y1="-110.981" x2="100" y2="310.814" gradientUnits="userSpaceOnUse">
<stop offset="0.140112" stop-color="#A0DAFB"/>
<stop offset="1" stop-color="#0A8ED9"/>
</linearGradient>
</defs>
</svg>
