<svg width="50" height="50" viewBox="0 0 50 50" fill="none" xmlns="http://www.w3.org/2000/svg">
<circle cx="25" cy="25" r="24.5" stroke="#FFF7F2"/>
<path d="M37.6993 39.2646H12.3011C9.28721 39.2646 6.79153 36.6754 6.79153 33.4387V16.5608C6.79153 13.3246 9.28763 10.735 12.3011 10.735H37.6993C40.7127 10.735 43.2085 13.3246 43.2085 16.5608V33.4387C43.2085 36.6754 40.7128 39.2646 37.6993 39.2646ZM12.3011 11.5848C9.65631 11.5848 7.54888 13.841 7.54888 16.5608V33.4387C7.54888 36.1585 9.65625 38.4152 12.3011 38.4152H37.6993C40.3442 38.4152 42.4515 36.1585 42.4515 33.4387V16.5608C42.4515 13.841 40.3441 11.5848 37.6993 11.5848H12.3011Z" fill="#1D1D1B" stroke="#FFF7F2"/>
<path d="M11.241 16.2998L11.241 16.2997C11.1298 16.1858 11.1049 16.0789 11.111 15.9875C11.1179 15.8837 11.1686 15.7681 11.2588 15.6733C11.3494 15.578 11.4534 15.531 11.5376 15.5238C11.6063 15.5179 11.6987 15.534 11.8088 15.6469L11.8088 15.6469C14.0504 17.9459 16.2937 20.2469 18.537 22.5478C20.7866 24.8552 23.0361 27.1626 25.2839 29.468C25.3951 29.5821 25.4201 29.689 25.4139 29.7805C25.407 29.8843 25.3563 29.9999 25.2661 30.0947C25.1755 30.1899 25.0715 30.237 24.9873 30.2442C24.9185 30.2501 24.8261 30.234 24.7161 30.1213C24.7161 30.1213 24.7161 30.1213 24.7161 30.1212L17.9786 23.2105L11.241 16.2998Z" fill="#1D1D1B" stroke="#FFF7F2"/>
<path d="M38.759 16.3002C38.759 16.3002 38.759 16.3002 38.7589 16.3003L32.0214 23.2107L25.2839 30.1212C25.2839 30.1212 25.2839 30.1213 25.2839 30.1213C25.1738 30.2342 25.0813 30.2502 25.0126 30.2443C24.9285 30.2371 24.8245 30.1901 24.734 30.0948C24.6438 30 24.5931 29.8843 24.5862 29.7804C24.5801 29.6888 24.6051 29.5819 24.7161 29.468C24.7161 29.468 24.7161 29.4679 24.7162 29.4679L31.4536 22.5574L38.1911 15.6469C38.1912 15.6469 38.1912 15.6469 38.1912 15.6469C38.3013 15.534 38.3938 15.518 38.4625 15.5238C38.5465 15.531 38.6505 15.5781 38.7411 15.6734C38.8312 15.7682 38.882 15.8839 38.8889 15.9878C38.895 16.0794 38.87 16.1863 38.759 16.3002Z" fill="#1D1D1B" stroke="#FFF7F2"/>
<path d="M38.7143 34.0854L38.7143 34.0854C37.2234 32.597 35.7325 31.1088 34.2415 29.6206L34.2309 29.61C32.7364 28.1183 31.242 26.6265 29.7476 25.1347L38.7143 34.0854ZM38.7143 34.0854C38.8266 34.1975 38.8509 34.3014 38.8456 34.3887C38.8394 34.4889 38.7902 34.6029 38.6999 34.6978C38.6093 34.793 38.5035 34.8419 38.4157 34.85C38.3428 34.8567 38.248 34.8398 38.137 34.729C36.6425 33.2372 35.148 31.7454 33.6535 30.2536C32.1591 28.7619 30.6646 27.2702 29.1702 25.7783L38.7143 34.0854ZM29.1702 25.7783C29.0578 25.6661 29.0335 25.5621 29.0389 25.4747C29.045 25.3745 29.0942 25.2606 29.1845 25.1657C29.2751 25.0705 29.3809 25.0217 29.4686 25.0136C29.5416 25.0069 29.6364 25.0238 29.7475 25.1346L29.1702 25.7783Z" fill="#1D1D1B" stroke="#FFF7F2"/>
<path d="M11.9441 34.7286L11.9441 34.7286C11.8328 34.8397 11.7379 34.8566 11.6651 34.8499C11.5775 34.8419 11.4718 34.793 11.3812 34.6978C11.291 34.6029 11.2418 34.4888 11.2356 34.3884C11.2302 34.3009 11.2546 34.1969 11.3668 34.0849C12.861 32.5932 14.3553 31.1017 15.8496 29.6101L15.8502 29.6096L15.8596 29.6002C17.3509 28.1116 18.8422 26.623 20.3335 25.1342C20.4448 25.0232 20.5396 25.0064 20.6125 25.0131C20.7002 25.0211 20.8059 25.0699 20.8965 25.1652C20.9867 25.26 21.0359 25.374 21.0421 25.4744C21.0474 25.5619 21.0231 25.6658 20.9109 25.7778C19.4165 27.2697 17.922 28.7614 16.4275 30.2532L16.4231 30.2576C14.9301 31.7479 13.437 33.2382 11.9441 34.7286Z" fill="#1D1D1B" stroke="#FFF7F2"/>
</svg>
