<?xml version="1.0" standalone="no"?>
<!DOCTYPE svg PUBLIC "-//W3C//DTD SVG 20010904//EN"
 "http://www.w3.org/TR/2001/REC-SVG-20010904/DTD/svg10.dtd">
<svg version="1.0" xmlns="http://www.w3.org/2000/svg"
 width="980.000000pt" height="818.000000pt" viewBox="0 0 980.000000 818.000000"
 preserveAspectRatio="xMidYMid meet">

<g transform="translate(0.000000,818.000000) scale(0.100000,-0.100000)"
fill="#000000" stroke="none">
<path d="M9344 8156 c-81 -26 -151 -77 -319 -228 -94 -84 -1086 -977 -2205
-1983 -1119 -1007 -2379 -2139 -2799 -2517 l-764 -688 -966 486 c-531 268
-1130 569 -1331 671 -310 157 -374 185 -421 190 -69 7 -145 -10 -196 -44 -43
-28 -311 -374 -330 -426 -19 -52 -15 -117 10 -168 26 -55 3088 -3380 3146
-3417 29 -18 47 -22 88 -19 28 2 62 11 76 20 29 19 6341 7517 6404 7607 121
173 57 409 -136 502 -57 27 -194 35 -257 14z"/>
</g>
</svg>
